<svg xmlns="http://www.w3.org/2000/svg" version="1.1" xmlns:xlink="http://www.w3.org/1999/xlink" xmlns:svgjs="http://svgjs.dev/svgjs" width="1440" height="900" preserveAspectRatio="none" viewBox="0 0 1440 900"><g mask="url(&quot;#SvgjsMask1234&quot;)" fill="none"><rect width="1440" height="900" x="0" y="0" fill="rgba(4, 13, 37, 1)"></rect><path d="M0,561.298C103.606,564.686,167.17,447.516,240.54,374.287C299.695,315.245,343.071,248.014,385.833,176.204C434.033,95.26,499.486,21.054,506.812,-72.869C514.975,-177.529,490.057,-286.267,428.541,-371.333C364.467,-459.937,268.558,-527.675,161.575,-550.275C57.857,-572.185,-46.616,-532.9,-144.583,-492.404C-234.411,-455.273,-307.081,-394.057,-377.763,-327.334C-455.917,-253.557,-560.182,-189.089,-578.146,-83.125C-596.159,23.13,-536.222,129.743,-469.613,214.465C-410.898,289.145,-307.053,302.441,-230.637,358.878C-146.655,420.903,-104.347,557.885,0,561.298" fill="#030818"></path><path d="M1440 1346.844C1533.713 1346.7 1630.181 1367.886 1714.768 1327.547 1804.4189999999999 1284.7930000000001 1889.2559999999999 1213.465 1918.634 1118.585 1947.288 1026.046 1903.179 928.24 1866.123 838.733 1835.763 765.4 1773.391 715.887 1725.663 652.472 1673.504 583.169 1650.1390000000001 487.375 1572.531 448.64 1491.311 408.102 1386.523 401.419 1305.785 442.907 1227.194 483.292 1217.459 590.346 1162.35 659.415 1110.403 724.5219999999999 1021.322 757.531 992.4259999999999 835.649 961.0409999999999 920.496 968.979 1016.076 998.8340000000001 1101.474 1030.392 1191.743 1081.1190000000001 1281.912 1164.689 1328.392 1246.731 1374.0230000000001 1346.122 1346.988 1440 1346.844" fill="#051232"></path></g><defs><mask id="SvgjsMask1234"><rect width="1440" height="900" fill="#ffffff"></rect></mask></defs></svg>