<svg xmlns="http://www.w3.org/2000/svg" version="1.1" xmlns:xlink="http://www.w3.org/1999/xlink" xmlns:svgjs="http://svgjs.dev/svgjs" width="500" height="768" preserveAspectRatio="none" viewBox="0 0 500 768"><g mask="url(&quot;#SvgjsMask1258&quot;)" fill="none"><rect width="500" height="768" x="0" y="0" fill="rgba(4, 13, 37, 1)"></rect><path d="M0,336.591C62.397,334.503,95.496,261.798,140.318,218.338C176.031,183.71,208.048,148.929,235.989,107.773C269.448,58.489,314.94,13.399,319.761,-45.975C325.012,-110.644,300.014,-174.648,263.262,-228.117C223.81,-285.515,173.043,-342.548,105.17,-358.177C38.195,-373.599,-28.471,-338.356,-90.929,-309.677C-146.131,-284.33,-200.571,-253.428,-233.756,-202.551C-264.897,-154.807,-251.233,-93.044,-267.803,-38.504C-288.476,29.542,-372.337,91.859,-342.866,156.582C-313.408,221.278,-209.424,194.89,-146.484,227.934C-91.544,256.778,-62.017,338.666,0,336.591" fill="#030818"></path><path d="M500 1113.101C566.189 1115.384 635.881 1101.076 686.972 1058.935 736.063 1018.443 743.995 949.374 769.29 890.981 794.002 833.933 845.8 781.007 833.788 720.008 821.796 659.108 756.822 626.586 709.351 586.596 668.879 552.502 628.8050000000001 517.024 577.488 504.1 527.298 491.46 476.175 503.449 425.764 515.175 372.517 527.561 316.68 537.31 276.298 574.1610000000001 233.55599999999998 613.165 205.02499999999998 667.131 196.524 724.367 188.003 781.74 208.199 837.608 229.135 891.7 251.23 948.7860000000001 273.74 1007.579 321.135 1046.319 371.429 1087.4279999999999 435.082 1110.862 500 1113.101" fill="#051232"></path></g><defs><mask id="SvgjsMask1258"><rect width="500" height="768" fill="#ffffff"></rect></mask></defs></svg>