<svg version="1.1" xmlns:xlink="http://www.w3.org/1999/xlink" x="0px" y="0px" viewBox="0 0 980.6 548" style="enable-background:new 0 0 980.6 548;" xml:space="preserve" data-asc="0.92">
<g fill="#ffffff"><g fill="#ffffff">
<path d="M25.20 46.55Q23.65 46.55 22.58 45.23Q21.50 43.90 20.50 40.85Q20 39.35 19.68 37.92Q19.35 36.50 19.20 35.15Q18.55 36.15 18.03 36.48Q17.50 36.80 16.50 36.80Q14.05 36.80 11.30 36.73Q8.55 36.65 6.40 36.60Q6.30 37.50 6.23 38.42Q6.15 39.35 6.15 40.25Q6.15 41.05 6.23 41.85Q6.30 42.65 6.35 43.40Q6.50 44.80 5.25 45.65Q4 46.50 2.15 46.50Q0.55 46.50 0.55 45.10Q0.55 44.25 1 42.55Q1.25 41.40 1.40 40.58Q1.55 39.75 1.55 39.25Q1.55 37.85 0.70 37.35Q0 36.95 0 36.30Q0 35.70 0.28 34.85Q0.55 34 1 33.27Q1.45 32.55 1.85 32.25Q2.20 32.05 2.70 31.90Q3.20 31.75 3.95 31.70Q5.90 26.10 8.33 22.02Q10.75 17.95 13.50 15.72Q16.25 13.50 19.10 13.50Q20.85 13.50 21.65 14.67Q22.45 15.85 22.45 18.60L22.45 20.85Q22.45 25.90 23.20 30.15Q23.95 34.40 25.05 37.05Q26.15 39.85 28.10 41.65Q28.70 42.15 28.90 42.52Q29.10 42.90 29.10 43.30Q29.10 44.05 28.53 44.80Q27.95 45.55 27.05 46.05Q26.15 46.55 25.20 46.55M7.90 31.40Q10.35 31.30 12.20 31.23Q14.05 31.15 15.30 31.15L18.80 31.15Q18.70 29.75 18.63 28.20Q18.55 26.65 18.55 24.95L18.55 22.05Q18.55 20.60 18.23 20.13Q17.90 19.65 17 19.65Q14.55 19.65 12.10 22.85Q9.65 26.05 7.90 31.40ZM40.20 46.60Q36.05 46.60 34.25 44.63Q32.45 42.65 32.45 39.40Q32.45 38.55 32.60 37.35Q32.75 36.15 33 34.45Q33.40 32 33.60 30.07Q33.80 28.15 33.80 25.85Q33.80 23.20 33.65 21.55Q32.80 22.05 32.40 22.05Q31.60 22.05 31.60 20.25Q31.60 18.85 32.23 17.88Q32.85 16.90 34.30 16.05Q35.75 15.15 37.98 14.50Q40.20 13.85 42.75 13.85Q46.90 13.85 49.05 15.75Q51.20 17.65 51.20 20.75Q51.20 22.75 50.35 24.45Q49.50 26.15 47.95 27.45Q54.20 28.45 54.20 34.65Q54.20 38 52.30 40.75Q50.40 43.50 47.15 45.05Q44 46.60 40.20 46.60M42.20 41.05Q44.45 41.05 46.28 40.42Q48.10 39.80 49.20 38.60Q50.30 37.40 50.30 35.80Q50.30 33.75 48.85 32.90Q47.40 32.05 45.50 32.05Q44.70 32.05 43.50 32.20Q43 32.30 42.35 32.30Q41.25 32.30 40.53 31.40Q39.80 30.50 39.80 29.15Q39.80 28.20 40.65 27.95Q46.75 26.35 46.75 22.40Q46.75 19.25 42.40 19.25Q40.80 19.25 38.45 19.80Q38.45 22.25 38.20 24.92Q37.95 27.60 37.45 30.50Q37.15 32.50 36.98 33.88Q36.80 35.25 36.80 36.10Q36.80 38.80 38.15 39.92Q39.50 41.05 42.20 41.05ZM70.10 46.65Q64.95 46.65 61.88 43.63Q58.80 40.60 58.80 34.70Q58.80 32.05 59.53 29.20Q60.25 26.35 61.95 23.55Q61.00 24.40 60.15 24.40Q58.70 24.40 58.70 22.10Q58.70 20.45 59.40 19.45Q60.10 18.45 60.75 17.85Q61.85 16.90 63.55 15.92Q65.25 14.95 67.55 14.30Q69.85 13.65 72.70 13.65Q79.40 13.65 82.78 17.42Q86.15 21.20 86.15 27.90Q86.15 31.85 85.00 35.25Q83.85 38.65 81.73 41.20Q79.60 43.75 76.65 45.20Q73.70 46.65 70.10 46.65M71.85 41.05Q74.35 41.05 76.78 39.90Q79.20 38.75 80.78 36.23Q82.35 33.70 82.35 29.65Q82.35 25.85 80.90 23.57Q79.45 21.30 77.23 20.27Q75.00 19.25 72.55 19.25Q70.70 19.25 69.23 19.72Q67.75 20.20 66.60 20.75Q65.30 22.75 64.15 25.63Q63.00 28.50 63.00 31.70Q63.00 34.90 64.25 36.98Q65.50 39.05 67.53 40.05Q69.55 41.05 71.85 41.05ZM101.95 46.65Q96.70 46.65 94.10 43.88Q91.50 41.10 91.50 35.15Q91.50 34.15 91.58 33.05Q91.65 31.95 91.75 30.90Q91.85 29.90 91.90 28.90Q91.95 27.90 91.95 27.10Q91.95 24.10 91.70 21.90Q91.45 19.70 90.20 17.70Q89.80 17.05 89.80 16.65Q89.80 16 90.53 15.38Q91.25 14.75 92.25 14.30Q93.25 13.85 94.15 13.85Q95.35 13.85 95.88 14.65Q96.40 15.45 96.55 16.63Q96.70 17.80 96.70 19Q96.70 20.25 96.58 21.75Q96.45 23.25 96.20 25Q96 26.90 95.83 28.97Q95.65 31.05 95.65 33.15Q95.65 36.05 96.68 37.77Q97.70 39.50 99.48 40.27Q101.25 41.05 103.45 41.05Q107.30 41.05 109.25 39.08Q111.20 37.10 111.95 33.90Q112.30 32.45 112.50 30.57Q112.70 28.70 112.70 26.75Q112.70 24.30 112.38 22.05Q112.05 19.80 111.10 18.10Q110.90 17.70 110.75 17.40Q110.60 17.10 110.60 16.75Q110.60 16.05 111.20 15.38Q111.80 14.70 112.70 14.27Q113.60 13.85 114.55 13.85Q116.15 13.85 116.70 15.20Q117.25 16.55 117.25 18.35Q117.25 19.45 117.08 21.55Q116.90 23.65 116.60 26.05Q116.30 28.45 116 30.57Q115.70 32.70 115.45 33.85Q114.20 39.80 111.05 43.23Q107.90 46.65 101.95 46.65ZM130.80 46.50Q130.20 46.50 129.57 46.30Q128.95 46.10 128.55 45.35Q128.15 44.60 128.15 43.05Q128.15 41.95 128.32 40.35Q128.50 38.75 128.80 36.90Q129.20 34.40 129.47 31.63Q129.75 28.85 129.75 25.95Q129.75 23.60 129.53 21.88Q129.30 20.15 128.95 19.20Q127.05 19.25 125.35 19.45Q123.65 19.65 121.90 20.10Q121.45 20.15 121.13 20.22Q120.80 20.30 120.50 20.30Q120.05 20.30 119.85 20.13Q119.65 19.95 119.65 19.25Q119.65 18.40 119.90 17.47Q120.15 16.55 120.65 15.90Q121.15 15.20 121.83 14.88Q122.50 14.55 123.30 14.45Q124.55 14.30 126.50 14.17Q128.45 14.05 130.78 13.95Q133.10 13.85 135.35 13.85Q139 13.85 140.57 13.90Q142.15 13.95 142.70 14.05Q143.40 14.15 143.68 14.47Q143.95 14.80 143.95 15.50Q143.95 16.85 142.75 18.20Q142.25 18.80 141.70 19.13Q141.15 19.45 140.25 19.40Q139.45 19.30 137.90 19.25Q136.35 19.20 134.45 19.20Q134.40 20.95 134.18 23.27Q133.95 25.60 133.65 27.95Q133.35 30.25 133.15 32.55Q132.95 34.85 132.95 36.75Q132.95 38.50 133.28 39.83Q133.60 41.15 134.60 42.10Q135.30 42.80 135.30 43.60Q135.30 44.70 134.05 45.60Q132.80 46.50 130.80 46.50Z"/></g></g>
</svg>